<svg width="439" height="612" viewBox="0 0 439 612" fill="none" xmlns="http://www.w3.org/2000/svg">
<path d="M-260.953 122.874C-267.767 44.5447 -194.492 -16.6285 -118.639 4.06425L287.919 114.973C331.628 126.897 363.989 163.774 370.135 208.661L437.477 700.512C447.721 775.335 383.096 838.956 308.442 827.542L-118.702 762.233C-170.228 754.355 -209.68 712.254 -214.197 660.325L-260.953 122.874Z" fill="url(#paint0_linear_0_23)"/>
<path d="M-260.953 122.874C-267.767 44.5447 -194.492 -16.6285 -118.639 4.06425L287.919 114.973C331.628 126.897 363.989 163.774 370.135 208.661L437.477 700.512C447.721 775.335 383.096 838.956 308.442 827.542L-118.702 762.233C-170.228 754.355 -209.68 712.254 -214.197 660.325L-260.953 122.874Z" stroke="black"/>
<defs>
<linearGradient id="paint0_linear_0_23" x1="91.5" y1="-38.591" x2="91.5" y2="850.409" gradientUnits="userSpaceOnUse">
<stop stop-color="#000AFF"/>
<stop offset="1" stop-color="#0235B9" stop-opacity="0"/>
</linearGradient>
</defs>
</svg>
