<svg width="407" height="614" viewBox="0 0 407 614" fill="none" xmlns="http://www.w3.org/2000/svg">
<path d="M699.503 490.535C706.317 568.864 633.042 630.037 557.189 609.345L150.631 498.436C106.922 486.512 74.5609 449.635 68.4151 404.748L1.0733 -87.1025C-9.17114 -161.926 55.4535 -225.547 130.107 -214.133L557.252 -148.824C608.778 -140.946 648.229 -98.8448 652.747 -46.916L699.503 490.535Z" fill="url(#paint0_linear_0_22)"/>
<path d="M699.503 490.535C706.317 568.864 633.042 630.037 557.189 609.345L150.631 498.436C106.922 486.512 74.5609 449.635 68.4151 404.748L1.0733 -87.1025C-9.17114 -161.926 55.4535 -225.547 130.107 -214.133L557.252 -148.824C608.778 -140.946 648.229 -98.8448 652.747 -46.916L699.503 490.535Z" stroke="black"/>
<defs>
<linearGradient id="paint0_linear_0_22" x1="347.05" y1="652" x2="347.05" y2="-237" gradientUnits="userSpaceOnUse">
<stop stop-color="#FF0000"/>
<stop offset="1" stop-color="#0235B9" stop-opacity="0"/>
</linearGradient>
</defs>
</svg>
